<svg xmlns:dc="http://purl.org/dc/elements/1.1/" xmlns:cc="http://creativecommons.org/ns#" xmlns:rdf="http://www.w3.org/1999/02/22-rdf-syntax-ns#" xmlns:svg="http://www.w3.org/2000/svg" xmlns="http://www.w3.org/2000/svg" xmlns:sodipodi="http://sodipodi.sourceforge.net/DTD/sodipodi-0.dtd" xmlns:inkscape="http://www.inkscape.org/namespaces/inkscape" viewBox="0 0 14.666667 13.333333750000001" x="0px" y="0px" version="1.1" style="" fill="#000000"><g style="" transform="matrix(0,0.33333334,-0.33333334,0,14.695855,2.2053805)" fill="#000000"><path style="" d="M 80.375 9.625 C 75.56916 9.625 71.625 13.569159 71.625 18.375 C 71.625 22.413038 74.413912 25.831602 78.154297 26.824219 L 78.154297 40.673828 L 17.835938 40.673828 C 10.308408 40.682628 4.2083087 46.781071 4.1992188 54.308594 L 4.1992188 64.673828 C 4.2082187 72.201351 10.308408 78.299503 17.835938 78.308594 L 82.5625 78.308594 C 90.09002 78.299794 96.190129 72.201351 96.199219 64.673828 L 96.199219 54.308594 C 96.190274 46.827208 90.163038 40.764686 82.699219 40.681641 L 82.699219 26.798828 C 86.387717 25.771155 89.123047 22.375971 89.123047 18.375 C 89.123047 13.569159 85.180841 9.625 80.375 9.625 z M 80.375 14.126953 C 82.74886 14.126953 84.623047 16.00114 84.623047 18.375 C 84.623047 20.74886 82.74886 22.623047 80.375 22.623047 C 78.001139 22.623047 76.126953 20.74886 76.126953 18.375 C 76.126953 16.00114 78.001139 14.126953 80.375 14.126953 z M 17.835938 45.21875 L 82.5625 45.21875 C 87.58327 45.21875 91.654297 49.287821 91.654297 54.308594 L 91.654297 64.673828 C 91.654297 69.694601 87.58327 73.763672 82.5625 73.763672 L 17.835938 73.763672 C 12.815158 73.763672 8.7441406 69.694601 8.7441406 64.673828 L 8.7441406 54.308594 C 8.7441406 49.287821 12.815158 45.21875 17.835938 45.21875 z M 57.998047 53.251953 C 54.020465 53.251953 50.75 56.522418 50.75 60.5 C 50.75 64.477582 54.020465 67.748047 57.998047 67.748047 L 76.5 67.748047 C 80.47758 67.748047 83.748047 64.477582 83.748047 60.5 C 83.748047 56.522418 80.47758 53.251953 76.5 53.251953 L 57.998047 53.251953 z M 57.998047 57.748047 L 76.5 57.748047 C 78.062418 57.748047 79.251953 58.937582 79.251953 60.5 C 79.251953 62.06242 78.062418 63.248047 76.5 63.248047 L 57.998047 63.248047 C 56.435626 63.248047 55.25 62.06242 55.25 60.5 C 55.25 58.937582 56.435626 57.748047 57.998047 57.748047 z M 17.714844 57.894531 C 16.473428 57.894531 15.466797 58.901162 15.466797 60.142578 C 15.466797 62.145269 17.888744 63.146423 19.304688 61.730469 C 20.720642 60.314526 19.717535 57.894531 17.714844 57.894531 z M 25.626953 57.894531 C 24.385539 57.894531 23.378906 58.901162 23.378906 60.142578 C 23.378906 62.145269 25.800854 63.146423 27.216797 61.730469 C 28.632751 60.314526 27.629646 57.894531 25.626953 57.894531 z M 33.539062 57.894531 C 32.297647 57.894531 31.291016 58.901162 31.291016 60.142578 C 31.291016 62.145269 33.712963 63.146423 35.128906 61.730469 C 36.544861 60.314526 35.541753 57.894531 33.539062 57.894531 z M 6.25 82.091797 A 2.250225 2.250225 0 1 0 6.25 86.587891 L 93.75 86.587891 A 2.250225 2.250225 0 0 0 96.03125 84.306641 A 2.250225 2.250225 0 0 0 93.75 82.091797 L 6.25 82.091797 z " transform="matrix(0,-0.44,0.44,0,-12.616141,44.087564)" stroke-width="2.27272725"/><path style="color:#000000;font-style:normal;font-variant:normal;font-weight:normal;font-stretch:normal;font-size:medium;line-height:normal;font-family:sans-serif;font-variant-ligatures:normal;font-variant-position:normal;font-variant-caps:normal;font-variant-numeric:normal;font-variant-alternates:normal;font-feature-settings:normal;text-indent:0;text-align:start;text-decoration:none;text-decoration-line:none;text-decoration-style:solid;text-decoration-color:#000000;letter-spacing:normal;word-spacing:normal;text-transform:none;writing-mode:lr-tb;direction:ltr;text-orientation:mixed;dominant-baseline:auto;baseline-shift:baseline;text-anchor:start;white-space:normal;shape-padding:0;clip-rule:nonzero;display:inline;overflow:visible;visibility:visible;opacity:1;isolation:auto;mix-blend-mode:normal;color-interpolation:sRGB;color-interpolation-filters:linearRGB;solid-color:#000000;solid-opacity:1;vector-effect:none;fill:#000000;fill-opacity:1;fill-rule:nonzero;stroke:none;stroke-width:4.5;stroke-linecap:round;stroke-linejoin:miter;stroke-miterlimit:4;stroke-dasharray:none;stroke-dashoffset:0;stroke-opacity:1;color-rendering:auto;image-rendering:auto;shape-rendering:auto;text-rendering:auto;enable-background:accumulate" d="M 97.673828,16.871094 101.5625,14.625" transform="matrix(0,-0.44,0.44,0,-12.616141,44.087564)"/></g><text x="0" y="25.666667" fill="#000000" font-size="5px" font-weight="bold" font-family="'Helvetica Neue', Helvetica, Arial-Unicode, Arial, Sans-serif">Created by sagar ghate</text><text x="0" y="30.666667" fill="#000000" font-size="5px" font-weight="bold" font-family="'Helvetica Neue', Helvetica, Arial-Unicode, Arial, Sans-serif">from the Noun Project</text></svg>